#!OML:ASF E:/inclinewalkrobotboard/Project1/Captureday1/Session1/subject1.ASF
:FULLY-SPECIFIED
:DEGREES
101
root 0 0 0 31.921386892333945 -40.74963956473233 -7.557928096910536
lowerback -9.10323940717784 1.702782569589896 -3.883388145773429
upperback -8.706812652211767 2.1280331075563006 -2.45184574074073
thorax -4.229056646868171 1.1485255272228936 -0.2036323525069541
lowerneck -10.299695499893506 3.3045299721889814 5.735914501948621
upperneck 39.389502133322594 1.3116385401652984 3.30842181345668
head 15.765995634684433 1.5580403716814102 0.527558633554227
rclavicle 9.46280509466968E-15 1.2950859521383396E-14
rhumerus 33.786402967498226 -24.028165128723288 2.3070388459648115
rradius 34.55606266308596
rwrist 12.5291822593337
rhand 28.94234076747825 -8.898786550706502
rfingers 7.125020000000018
rthumb 53.008402150071575 -30.581597728235966
lclavicle 7.336614346091348E-15 1.0670135114622544E-16
lhumerus -43.570985186989816 20.07308131783207 48.873044604444864
lradius 16.428378950981113
lwrist -38.67633728735948
lhand -17.30428388300293 18.182803257337422
lfingers 7.125020000000016
lthumb 9.027021370046057 48.38745924616018
rfemur 114.35464478334207 -134.5855067340699 -109.6203787132412
rtibia 34.15316705941981
rfoot -20.017498001779952 -48.607160830109414
rtoes 16.240632616420054
lfemur -52.77534597498861 7.191679850659275 -33.87157582732797
ltibia 35.81765892737688
lfoot -58.3839307571357 32.260874650859435
ltoes 31.24452615218042
102
root 0 0 0 30.858645844062377 -38.60616636118142 -7.119502823391754
lowerback -8.579704529604747 1.0665000362241492 -4.299086805545572
upperback -8.608952664746608 1.3168233906608815 -2.1610497678034055
thorax -4.323456109345868 0.776280283080105 0.3028343638499882
lowerneck -10.414125905543672 3.4487507053234294 5.704553994988944
upperneck 39.420535694955944 1.5939535989820999 3.0567334909748825
head 15.858768250119628 1.6568736915126578 0.46930369066004896
rclavicle 9.91911258746592E-15 1.3340853295131083E-14
rhumerus 37.84901428969082 -23.467282634092403 1.5195411433991666
rradius 39.205801247100865
rwrist 9.501713678352875
rhand 27.40008273366643 -7.7181618751566266
rfingers 7.125020000000031
rthumb 51.54723248364603 -29.697994766747502
lclavicle 7.704741966138434E-15 3.3434754597535674E-16
lhumerus -48.15151568412888 9.19664594114371 79.18256891302462
lradius 24.343367120296556
lwrist -17.441831562114665
lhand -24.01898276208055 15.93188851041825
lfingers 7.125020000000014
lthumb 2.538902860708525 46.36951727993953
rfemur 87.8016106761454 -107.0043623175212 -83.10705818602719
rtibia 34.423941972211004
rfoot -16.94593955755412 -45.965703565261066
rtoes 15.730272222906166
lfemur -49.051334061173215 4.41157540943098 -32.25969745224729
ltibia 34.650203879125016
lfoot -59.12332725962551 30.98386364337981
ltoes 31.550243999704378
103
root 0 0 0 28.841686531346504 -36.31775482339298 -6.927664397506633
lowerback -7.519054015770422 -0.007096901397682043 -4.526244046303938
upperback -8.357681819327603 -0.053882679684436274 -1.3729598784906925
thorax -4.502444409616077 0.12291102330914194 1.2051900264132032
lowerneck -10.517784183280178 3.457517906892531 5.485265942253113
upperneck 39.45782105805146 1.740767787244949 2.745407595080813
head 15.971637125415734 1.665917414774018 0.4054254913616995
rclavicle 9.317264395764052E-15 1.1531056256227049E-14
rhumerus 37.68421047980432 -22.714666538266417 -0.21178564895198804
rradius 45.062732858773
rwrist 4.464369220320396
rhand 25.071480780299936 -5.6776633764480025
rfingers 7.125020000000046
rthumb 49.34777268667265 -28.12941728925788
lclavicle 7.347111464909732E-15 -1.6620386140785396E-15
lhumerus -52.5239204788248 4.087262158026126 90.7900183016014
lradius 33.77039410291452
lwrist -7.702872126139224
lhand -23.515525013839543 14.633493254771516
lfingers 7.125020000000025
lthumb 3.0288848118146348 44.97410945185911
rfemur 28.91754100173467 -46.07177827687218 -24.850297246300244
rtibia 34.9234705523685
rfoot -11.023847768728743 -40.852787750120214
rtoes 15.230130430329833
lfemur -45.54739705691801 1.966631093103544 -30.689652842091878
ltibia 33.51111478672421
lfoot -59.33895636580668 29.70896260050019
ltoes 31.77673899804632
104
root 0 0 0 22.876478796000303 -32.34846792642469 -5.723530014509574
lowerback -5.103481163624826 -1.8938574208877292 -4.7555743591711845
upperback -7.243208900820738 -2.46828120447796 0.44731220620347045
thorax -4.467664578743244 -1.02616321194883 3.158393453453967
lowerneck -11.015447316513539 2.7121183734171552 4.234292381870697
upperneck 37.706119658011545 1.162855472435028 2.5140748235309562
head 15.427994611059198 1.2472742195855224 0.44662805925537763
rclavicle 1.1063039416021862E-14 5.618185496081833E-15
rhumerus 24.056061630231476 -22.75839563183003 -3.492579501139666
rradius 50.26293202086259
rwrist -2.4953924824746174
rhand 20.058029134074253 -1.1656905820045846
rfingers 7.125020000000061
rthumb 44.59989812764097 -24.615480351510502
lclavicle 9.753575398371579E-15 -5.901408363533644E-15
lhumerus -55.523330660134306 -1.3240911895011402 93.9795677709784
lradius 45.94898086239996
lwrist 0.8193381781947018
lhand -16.03750268461105 14.242176914106802
lfingers 7.125020000000048
lthumb 10.20166016383699 43.64442307825794
rfemur -13.142775690394899 -0.26022352623412814 16.499302823346028
rtibia 34.770670757171175
rfoot -3.981042822670741 -39.86884712700788
rtoes 17.162934398916555
lfemur -41.99998254019697 0.7382060934531296 -29.7306003539433
ltibia 32.670553947691026
lfoot -55.88823559826919 27.929312544312257
ltoes 30.178982236503394
105
root 0 0 0 19.156100025140336 -28.580738842912787 -4.154334817138637
lowerback -4.2678413361615055 -2.5559593040359427 -4.823527403804038
upperback -6.446283658607015 -3.3330346742142156 1.3570643678460221
thorax -4.060929440072535 -1.4416946682264655 4.1385206752092065
lowerneck -11.900069824679155 1.4817761547622659 2.766070152571667
upperneck 35.50856475524449 -0.07559734968624404 2.312771288094262
head 14.72446947103397 0.5302359165017354 0.46329916859504894
rclavicle 1.3042996317276495E-14 1.7668826971519204E-15
rhumerus 0.1655171586203359 -27.310813635279413 -7.284390766952789
rradius 47.49581604968935
rwrist -1.2712274870597469
rhand 13.06117879857501 4.4091600339247154
rfingers 7.125020000000069
rthumb 37.9538555506586 -20.424877141540495
lclavicle 1.077606890941391E-14 -7.078247725246933E-15
lhumerus -55.40246529022603 -6.623979867109263 93.204173457501
lradius 49.70814460923404
lwrist 6.637413717446343
lhand -10.960552164671492 15.191904234075901
lfingers 7.125020000000057
lthumb 15.021274981322106 43.588095488497416
rfemur -16.676529947771883 5.286307074683251 20.012110556142815
rtibia 34.13943099611868
rfoot -2.151382400335134 -41.11288384772399
rtoes 18.74068907713319
lfemur -39.55925907141223 0.5129822377765727 -29.71480849776092
ltibia 32.28304475866906
lfoot -51.19607012336085 26.1570899728714
ltoes 27.52663677157733
